<svg width="1200" height="360" viewBox="0 0 1200 360" fill="none" xmlns="http://www.w3.org/2000/svg" role="img" aria-labelledby="title desc">
  <title id="title">AI Sprite Studio animated pipeline banner</title>
  <desc id="desc">Animated neon banner showing prompt to sprite processing pipeline.</desc>

  <defs>
    <linearGradient id="bg" x1="0" y1="0" x2="1200" y2="360" gradientUnits="userSpaceOnUse">
      <stop stop-color="#05080B"/>
      <stop offset="0.45" stop-color="#07151B"/>
      <stop offset="1" stop-color="#0A0D12"/>
    </linearGradient>

    <linearGradient id="cyanSweep" x1="-120" y1="0" x2="260" y2="0" gradientUnits="userSpaceOnUse">
      <stop stop-color="#00D4FF" stop-opacity="0"/>
      <stop offset="0.5" stop-color="#00D4FF" stop-opacity="0.82"/>
      <stop offset="1" stop-color="#00D4FF" stop-opacity="0"/>
      <animateTransform attributeName="gradientTransform" type="translate" values="-260 0;1260 0;-260 0" dur="7s" repeatCount="indefinite"/>
    </linearGradient>

    <linearGradient id="magentaPulse" x1="0" y1="0" x2="1" y2="1">
      <stop stop-color="#FF2D95"/>
      <stop offset="1" stop-color="#FF8C00"/>
    </linearGradient>

    <pattern id="grid" width="34" height="34" patternUnits="userSpaceOnUse">
      <path d="M34 0H0V34" stroke="#16303A" stroke-opacity="0.36" stroke-width="1"/>
    </pattern>

    <pattern id="checker" width="20" height="20" patternUnits="userSpaceOnUse">
      <rect width="10" height="10" fill="#1B242B"/>
      <rect x="10" y="10" width="10" height="10" fill="#1B242B"/>
      <rect x="10" width="10" height="10" fill="#101820"/>
      <rect y="10" width="10" height="10" fill="#101820"/>
    </pattern>

    <filter id="glow" x="-40%" y="-40%" width="180%" height="180%">
      <feGaussianBlur stdDeviation="4" result="blur"/>
      <feColorMatrix in="blur" type="matrix" values="0 0 0 0 0  0 0 0 0 0.83  0 0 0 0 1  0 0 0 0.7 0" result="cyanBlur"/>
      <feMerge>
        <feMergeNode in="cyanBlur"/>
        <feMergeNode in="SourceGraphic"/>
      </feMerge>
    </filter>

    <filter id="softShadow" x="-20%" y="-20%" width="140%" height="140%">
      <feDropShadow dx="0" dy="14" stdDeviation="18" flood-color="#000000" flood-opacity="0.55"/>
    </filter>
  </defs>

  <rect width="1200" height="360" rx="28" fill="url(#bg)"/>
  <rect width="1200" height="360" rx="28" fill="url(#grid)"/>
  <rect x="1.5" y="1.5" width="1197" height="357" rx="26.5" stroke="#1C3C47" stroke-width="3"/>
  <rect x="1.5" y="1.5" width="1197" height="357" rx="26.5" stroke="url(#cyanSweep)" stroke-width="3"/>

  <g opacity="0.48">
    <path d="M0 98H1200" stroke="#00D4FF" stroke-opacity="0.16"/>
    <path d="M0 252H1200" stroke="#00D4FF" stroke-opacity="0.12"/>
    <rect y="-58" width="1200" height="58" fill="#00D4FF" opacity="0.13">
      <animate attributeName="y" values="-58;360;-58" dur="8s" repeatCount="indefinite"/>
    </rect>
  </g>

  <g transform="translate(58 50)">
    <text x="0" y="0" fill="#00D4FF" font-family="Cascadia Mono, Consolas, monospace" font-size="16" font-weight="700" letter-spacing="4">LOCAL 2D ASSET PIPELINE</text>
    <text x="0" y="48" fill="#F5F7FA" font-family="Bahnschrift, Segoe UI, sans-serif" font-size="58" font-weight="800">AI Sprite Studio</text>
    <text x="2" y="84" fill="#8EA0AA" font-family="Cascadia Mono, Consolas, monospace" font-size="18">Prompt  ->  PNG  ->  Trim  ->  Sheet  ->  Atlas  ->  ZIP</text>
  </g>

  <g filter="url(#softShadow)">
    <rect x="58" y="166" width="302" height="138" rx="14" fill="#091018" stroke="#253947" stroke-width="2"/>
    <rect x="78" y="188" width="82" height="18" rx="4" fill="#00D4FF" opacity="0.16"/>
    <text x="86" y="202" fill="#00D4FF" font-family="Cascadia Mono, Consolas, monospace" font-size="12" font-weight="700">PROMPT</text>
    <text x="82" y="236" fill="#F5F7FA" font-family="Cascadia Mono, Consolas, monospace" font-size="16">slime enemy, readable</text>
    <text x="82" y="264" fill="#8EA0AA" font-family="Cascadia Mono, Consolas, monospace" font-size="16">shape, clean alpha</text>
    <rect x="278" y="251" width="10" height="20" fill="#00D4FF">
      <animate attributeName="opacity" values="0;1;1;0" dur="1.1s" repeatCount="indefinite"/>
    </rect>
  </g>

  <g transform="translate(412 204)" font-family="Cascadia Mono, Consolas, monospace" font-size="13" font-weight="700">
    <path d="M0 30H374" stroke="#24414C" stroke-width="5" stroke-linecap="round"/>
    <circle r="7" fill="#00D4FF" filter="url(#glow)">
      <animateMotion dur="3.8s" repeatCount="indefinite" path="M0 30H374"/>
      <animate attributeName="opacity" values="0.2;1;1;0.2" dur="3.8s" repeatCount="indefinite"/>
    </circle>

    <g transform="translate(0 0)">
      <rect width="76" height="60" rx="12" fill="#101820" stroke="#00D4FF" stroke-opacity="0.55"/>
      <text x="13" y="36" fill="#B9F6FF">GEN</text>
      <animateTransform attributeName="transform" type="translate" values="0 0;0 -4;0 0" dur="2.4s" repeatCount="indefinite"/>
    </g>
    <g transform="translate(104 0)">
      <rect width="76" height="60" rx="12" fill="#101820" stroke="#2C3A47"/>
      <text x="10" y="36" fill="#8EA0AA">TRIM</text>
      <animateTransform attributeName="transform" type="translate" values="104 0;104 -4;104 0" dur="2.4s" begin="0.35s" repeatCount="indefinite"/>
    </g>
    <g transform="translate(208 0)">
      <rect width="76" height="60" rx="12" fill="#101820" stroke="#2C3A47"/>
      <text x="8" y="36" fill="#8EA0AA">SHEET</text>
      <animateTransform attributeName="transform" type="translate" values="208 0;208 -4;208 0" dur="2.4s" begin="0.7s" repeatCount="indefinite"/>
    </g>
    <g transform="translate(312 0)">
      <rect width="76" height="60" rx="12" fill="#101820" stroke="#FF8C00" stroke-opacity="0.55"/>
      <text x="12" y="36" fill="#FFD28A">PACK</text>
      <animateTransform attributeName="transform" type="translate" values="312 0;312 -4;312 0" dur="2.4s" begin="1.05s" repeatCount="indefinite"/>
    </g>
  </g>

  <g filter="url(#softShadow)">
    <rect x="850" y="64" width="286" height="240" rx="18" fill="#0A1118" stroke="#263C48" stroke-width="2"/>
    <rect x="874" y="88" width="238" height="160" rx="12" fill="url(#checker)" stroke="#1D313B"/>
    <g transform="translate(951 128)" filter="url(#glow)">
      <rect x="42" y="16" width="44" height="46" rx="16" fill="#35D45D"/>
      <rect x="55" y="0" width="44" height="62" rx="16" fill="#8B5CF6"/>
      <rect x="22" y="52" width="82" height="38" fill="#EF4D67" opacity="0.88"/>
      <rect x="65" y="34" width="24" height="24" fill="#48E06F"/>
      <rect x="52" y="36" width="18" height="12" fill="#071018"/>
      <rect x="70" y="80" width="32" height="20" fill="#8B5CF6" opacity="0.86"/>
      <animateTransform attributeName="transform" type="translate" values="951 128;951 122;951 128" dur="1.6s" repeatCount="indefinite"/>
    </g>
    <text x="890" y="277" fill="#F5F7FA" font-family="Bahnschrift, Segoe UI, sans-serif" font-size="22" font-weight="800">sprite_preview.png</text>
    <text x="890" y="298" fill="#8EA0AA" font-family="Cascadia Mono, Consolas, monospace" font-size="13">transparent · 64x64 · atlas-ready</text>
  </g>

  <g fill="#00D4FF" filter="url(#glow)">
    <path d="M112 78l6 13 13 6-13 6-6 13-6-13-13-6 13-6 6-13z">
      <animate attributeName="opacity" values="0.22;1;0.22" dur="2.1s" repeatCount="indefinite"/>
      <animateTransform attributeName="transform" type="scale" values="0.9;1.08;0.9" dur="2.1s" repeatCount="indefinite"/>
    </path>
    <path d="M780 82l4 9 9 4-9 4-4 9-4-9-9-4 9-4 4-9z">
      <animate attributeName="opacity" values="0.15;0.9;0.15" dur="2.8s" begin="0.5s" repeatCount="indefinite"/>
    </path>
    <path d="M1100 48l5 10 10 5-10 5-5 10-5-10-10-5 10-5 5-10z">
      <animate attributeName="opacity" values="0.2;1;0.2" dur="2.4s" begin="0.9s" repeatCount="indefinite"/>
    </path>
  </g>

  <g opacity="0.74">
    <circle cx="1016" cy="102" r="4" fill="#FF2D95">
      <animate attributeName="r" values="3;7;3" dur="2s" repeatCount="indefinite"/>
      <animate attributeName="opacity" values="0.3;1;0.3" dur="2s" repeatCount="indefinite"/>
    </circle>
    <circle cx="1046" cy="102" r="4" fill="#FF8C00">
      <animate attributeName="r" values="3;7;3" dur="2s" begin="0.35s" repeatCount="indefinite"/>
      <animate attributeName="opacity" values="0.3;1;0.3" dur="2s" begin="0.35s" repeatCount="indefinite"/>
    </circle>
  </g>
</svg>
